<svg width="100" height="100" viewBox="0 0 100 100" fill="none" xmlns="http://www.w3.org/2000/svg">
  <defs>
    <linearGradient id="premiumGradient" x1="0%" y1="0%" x2="100%" y2="100%">
      <stop offset="0%" style="stop-color:#0052D4;stop-opacity:1" /> <stop offset="100%" style="stop-color:#65C7F7;stop-opacity:1" /> </linearGradient>
    <linearGradient id="wingGradient" x1="0%" y1="0%" x2="100%" y2="100%">
      <stop offset="0%" style="stop-color:#B0B0B0;stop-opacity:1" /> <stop offset="100%" style="stop-color:#E0E0E0;stop-opacity:1" /> </linearGradient>
  </defs>

  <rect x="15" y="30" width="70" height="45" rx="8" fill="url(#premiumGradient)" stroke="#0033A0" stroke-width="2"/>

  <rect x="25" y="38" width="15" height="10" rx="2" fill="#FFD700" opacity="0.8"/> <path d="M 50 15 L 50 30 L 85 30 Q 90 45, 75 55 L 60 45 Q 55 30, 50 15 Z" fill="url(#wingGradient)" stroke="#909090" stroke-width="1.5" transform="rotate(10 65 35)"/>

  <path d="M 50 15 L 50 30 L 85 30 Q 90 45, 75 55 L 60 45 Q 55 30, 50 15 Z" fill="black" opacity="0.15" transform="translate(2 2) rotate(10 65 35)"/>
  <rect x="15" y="30" width="70" height="45" rx="8" fill="black" opacity="0.1" transform="translate(2 2)"/>


</svg>
